<?xml version="1.0" encoding="utf-8" standalone="no"?>
<!DOCTYPE svg PUBLIC "-//W3C//DTD SVG 1.1//EN"
  "http://www.w3.org/Graphics/SVG/1.1/DTD/svg11.dtd">
<svg xmlns:xlink="http://www.w3.org/1999/xlink" width="532.8pt" height="302.4pt" viewBox="0 0 532.8 302.4" xmlns="http://www.w3.org/2000/svg" version="1.1">
 <metadata>
  <rdf:RDF xmlns:dc="http://purl.org/dc/elements/1.1/" xmlns:cc="http://creativecommons.org/ns#" xmlns:rdf="http://www.w3.org/1999/02/22-rdf-syntax-ns#">
   <cc:Work>
    <dc:type rdf:resource="http://purl.org/dc/dcmitype/StillImage"/>
    <dc:date>2026-08-04T08:31:49.118140</dc:date>
    <dc:format>image/svg+xml</dc:format>
    <dc:creator>
     <cc:Agent>
      <dc:title>Matplotlib v3.10.9, https://matplotlib.org/</dc:title>
     </cc:Agent>
    </dc:creator>
   </cc:Work>
  </rdf:RDF>
 </metadata>
 <defs>
  <style type="text/css">*{stroke-linejoin: round; stroke-linecap: butt}</style>
 </defs>
 <g id="figure_1">
  <g id="patch_1">
   <path d="M 0 302.4 
L 532.8 302.4 
L 532.8 0 
L 0 0 
z
" style="fill: #fcfcfb"/>
  </g>
  <g id="axes_1">
   <g id="patch_2">
    <path d="M 31.933053 275.446948 
L 529.79976 275.446948 
L 529.79976 34.571189 
L 31.933053 34.571189 
z
" style="fill: #fcfcfb"/>
   </g>
   <g id="matplotlib.axis_1">
    <g id="xtick_1">
     <g id="line2d_1"/>
     <g id="text_1">
      <text style="font-size: 8px; font-family: 'DejaVu Sans', 'Helvetica', 'Arial', sans-serif; text-anchor: middle; fill: #898781" x="31.933053" y="285.025698" transform="rotate(-0 31.933053 285.025698)">0.0</text>
     </g>
    </g>
    <g id="xtick_2">
     <g id="line2d_2"/>
     <g id="text_2">
      <text style="font-size: 8px; font-family: 'DejaVu Sans', 'Helvetica', 'Arial', sans-serif; text-anchor: middle; fill: #898781" x="94.954155" y="285.025698" transform="rotate(-0 94.954155 285.025698)">0.5</text>
     </g>
    </g>
    <g id="xtick_3">
     <g id="line2d_3"/>
     <g id="text_3">
      <text style="font-size: 8px; font-family: 'DejaVu Sans', 'Helvetica', 'Arial', sans-serif; text-anchor: middle; fill: #898781" x="157.975257" y="285.025698" transform="rotate(-0 157.975257 285.025698)">1.0</text>
     </g>
    </g>
    <g id="xtick_4">
     <g id="line2d_4"/>
     <g id="text_4">
      <text style="font-size: 8px; font-family: 'DejaVu Sans', 'Helvetica', 'Arial', sans-serif; text-anchor: middle; fill: #898781" x="220.996359" y="285.025698" transform="rotate(-0 220.996359 285.025698)">1.5</text>
     </g>
    </g>
    <g id="xtick_5">
     <g id="line2d_5"/>
     <g id="text_5">
      <text style="font-size: 8px; font-family: 'DejaVu Sans', 'Helvetica', 'Arial', sans-serif; text-anchor: middle; fill: #898781" x="284.017461" y="285.025698" transform="rotate(-0 284.017461 285.025698)">2.0</text>
     </g>
    </g>
    <g id="xtick_6">
     <g id="line2d_6"/>
     <g id="text_6">
      <text style="font-size: 8px; font-family: 'DejaVu Sans', 'Helvetica', 'Arial', sans-serif; text-anchor: middle; fill: #898781" x="347.038564" y="285.025698" transform="rotate(-0 347.038564 285.025698)">2.5</text>
     </g>
    </g>
    <g id="xtick_7">
     <g id="line2d_7"/>
     <g id="text_7">
      <text style="font-size: 8px; font-family: 'DejaVu Sans', 'Helvetica', 'Arial', sans-serif; text-anchor: middle; fill: #898781" x="410.059666" y="285.025698" transform="rotate(-0 410.059666 285.025698)">3.0</text>
     </g>
    </g>
    <g id="xtick_8">
     <g id="line2d_8"/>
     <g id="text_8">
      <text style="font-size: 8px; font-family: 'DejaVu Sans', 'Helvetica', 'Arial', sans-serif; text-anchor: middle; fill: #898781" x="473.080768" y="285.025698" transform="rotate(-0 473.080768 285.025698)">3.5</text>
     </g>
    </g>
    <g id="text_9">
     <text style="font-size: 9px; font-family: 'DejaVu Sans', 'Helvetica', 'Arial', sans-serif; text-anchor: middle; fill: #52514e" x="280.866406" y="297.528041" transform="rotate(-0 280.866406 297.528041)">Distance travelled  (m)</text>
    </g>
   </g>
   <g id="matplotlib.axis_2">
    <g id="ytick_1">
     <g id="line2d_9">
      <path d="M 31.933053 230.282743 
L 529.79976 230.282743 
" clip-path="url(#pe8d78f7a7b)" style="fill: none; stroke: #e1e0d9; stroke-width: 0.7; stroke-linecap: round"/>
     </g>
     <g id="line2d_10"/>
     <g id="text_10">
      <text style="font-size: 8px; font-family: 'DejaVu Sans', 'Helvetica', 'Arial', sans-serif; text-anchor: end; fill: #898781" x="28.433053" y="233.322118" transform="rotate(-0 28.433053 233.322118)">0.0</text>
     </g>
    </g>
    <g id="ytick_2">
     <g id="line2d_11">
      <path d="M 31.933053 180.100293 
L 529.79976 180.100293 
" clip-path="url(#pe8d78f7a7b)" style="fill: none; stroke: #e1e0d9; stroke-width: 0.7; stroke-linecap: round"/>
     </g>
     <g id="line2d_12"/>
     <g id="text_11">
      <text style="font-size: 8px; font-family: 'DejaVu Sans', 'Helvetica', 'Arial', sans-serif; text-anchor: end; fill: #898781" x="28.433053" y="183.139668" transform="rotate(-0 28.433053 183.139668)">0.2</text>
     </g>
    </g>
    <g id="ytick_3">
     <g id="line2d_13">
      <path d="M 31.933053 129.917843 
L 529.79976 129.917843 
" clip-path="url(#pe8d78f7a7b)" style="fill: none; stroke: #e1e0d9; stroke-width: 0.7; stroke-linecap: round"/>
     </g>
     <g id="line2d_14"/>
     <g id="text_12">
      <text style="font-size: 8px; font-family: 'DejaVu Sans', 'Helvetica', 'Arial', sans-serif; text-anchor: end; fill: #898781" x="28.433053" y="132.957218" transform="rotate(-0 28.433053 132.957218)">0.4</text>
     </g>
    </g>
    <g id="ytick_4">
     <g id="line2d_15">
      <path d="M 31.933053 79.735394 
L 529.79976 79.735394 
" clip-path="url(#pe8d78f7a7b)" style="fill: none; stroke: #e1e0d9; stroke-width: 0.7; stroke-linecap: round"/>
     </g>
     <g id="line2d_16"/>
     <g id="text_13">
      <text style="font-size: 8px; font-family: 'DejaVu Sans', 'Helvetica', 'Arial', sans-serif; text-anchor: end; fill: #898781" x="28.433053" y="82.774769" transform="rotate(-0 28.433053 82.774769)">0.6</text>
     </g>
    </g>
    <g id="text_14">
     <text style="font-size: 9px; font-family: 'DejaVu Sans', 'Helvetica', 'Arial', sans-serif; text-anchor: middle; fill: #52514e" x="9.838834" y="155.009068" transform="rotate(-90 9.838834 155.009068)">Lateral deviation  (m)</text>
    </g>
   </g>
   <g id="line2d_17">
    <path d="M 31.933053 230.282743 
L 529.79976 230.282743 
" clip-path="url(#pe8d78f7a7b)" style="fill: none; stroke-dasharray: 4,3; stroke-dashoffset: 0; stroke: #898781"/>
   </g>
   <g id="line2d_18">
    <path d="M 34.009823 230.272737 
L 37.715706 230.217111 
L 41.708041 230.164105 
L 45.71788 230.03749 
L 49.780729 229.841565 
L 53.860613 229.583366 
L 57.813918 229.260892 
L 61.819225 228.861189 
L 65.8225 228.387984 
L 69.84008 227.805788 
L 73.854502 227.143079 
L 77.809349 226.357388 
L 81.810024 225.421981 
L 85.786277 224.38399 
L 89.739424 223.271779 
L 93.701918 222.04278 
L 97.622151 220.739671 
L 101.534475 219.345358 
L 105.405011 217.893094 
L 109.266115 216.34437 
L 113.13605 214.704676 
L 117.030234 212.952477 
L 120.896454 211.118276 
L 124.769867 209.192136 
L 128.602861 207.238404 
L 132.392897 205.239429 
L 136.205397 203.13323 
L 140.022451 200.928215 
L 143.872808 198.571693 
L 147.704833 196.099912 
L 151.486084 193.549383 
L 155.279143 190.849603 
L 159.013059 188.036392 
L 162.713579 185.149489 
L 166.479751 182.109486 
L 170.160516 179.031106 
L 173.853144 175.826645 
L 177.526615 172.536305 
L 181.150929 169.202992 
L 184.761102 165.809329 
L 188.340735 162.371147 
L 191.917506 158.840143 
L 195.45278 155.22465 
L 198.993178 151.551299 
L 202.527576 147.77897 
L 205.965811 144.027875 
L 209.37869 140.185727 
L 212.788045 136.188957 
L 216.134426 132.121771 
L 219.439879 127.990464 
L 222.741194 123.779751 
L 226.011491 119.539075 
L 229.172639 115.357245 
L 232.195237 111.089256 
L 235.524646 106.205426 
L 238.819176 101.28795 
L 242.135662 96.250991 
L 245.396234 91.18645 
L 248.647268 86.04033 
" clip-path="url(#pe8d78f7a7b)" style="fill: none; stroke: #a9a7a0; stroke-opacity: 0.75; stroke-width: 1.5; stroke-linecap: round"/>
   </g>
   <g id="line2d_19">
    <path d="M 34.27827 230.239743 
L 38.073063 230.09455 
L 42.06499 229.968412 
L 46.091863 229.760699 
L 50.189291 229.480953 
L 54.23191 229.144549 
L 58.218424 228.71321 
L 62.238952 228.21777 
L 66.240111 227.677755 
L 70.255641 227.041635 
L 74.233294 226.35852 
L 78.224818 225.586076 
L 82.212556 224.740406 
L 86.195879 223.815174 
L 90.139637 222.832515 
L 94.098669 221.806588 
L 98.053236 220.71443 
L 101.970491 219.60594 
L 105.86816 218.476737 
L 109.724556 217.280711 
L 113.647551 216.010624 
L 117.566706 214.694471 
L 121.46316 213.326142 
L 125.391339 211.905972 
L 129.283092 210.485594 
L 133.154236 209.039527 
L 137.021079 207.548407 
L 140.913955 205.952913 
L 144.853213 204.276787 
L 148.767114 202.53642 
L 152.637188 200.734556 
L 156.567552 198.821557 
L 160.433557 196.837227 
L 164.31354 194.818343 
L 168.257574 192.72391 
L 172.138219 190.573257 
L 176.009693 188.357954 
L 179.896476 186.119725 
L 183.747949 183.895069 
L 187.589959 181.606429 
L 191.390935 179.293757 
L 195.232314 176.879802 
L 199.029351 174.423771 
L 202.818048 171.917263 
L 206.567558 169.40218 
L 210.340115 166.801178 
L 214.084794 164.1497 
L 217.896478 161.343117 
L 221.607738 158.511418 
L 225.30215 155.593698 
L 229.001993 152.607361 
L 232.654848 149.580878 
L 236.29427 146.401158 
L 239.943078 143.088815 
L 243.529311 139.761394 
L 247.109913 136.410029 
L 250.651096 133.059377 
L 254.191401 129.623002 
L 257.695135 126.119993 
L 261.212977 122.514714 
L 264.78844 118.744285 
L 268.157776 115.113584 
L 271.060732 111.793668 
L 274.667444 107.621463 
L 278.268371 103.35924 
L 281.823155 99.014058 
L 285.348505 94.574731 
L 288.860624 90.028309 
L 292.310214 85.422973 
L 295.756096 80.680005 
L 299.16979 75.845764 
" clip-path="url(#pe8d78f7a7b)" style="fill: none; stroke: #a9a7a0; stroke-opacity: 0.75; stroke-width: 1.5; stroke-linecap: round"/>
   </g>
   <g id="line2d_20">
    <path d="M 34.242103 230.196987 
L 38.017356 229.932486 
L 42.04312 229.650955 
L 46.050751 229.35764 
L 50.146284 228.982677 
L 54.205562 228.590702 
L 58.24574 228.153644 
L 62.248818 227.673541 
L 66.232326 227.142444 
L 70.28464 226.527923 
L 74.263393 225.870802 
L 78.240484 225.174394 
L 82.266984 224.381536 
L 86.218801 223.536834 
L 90.203281 222.63172 
L 94.202386 221.669096 
L 98.144475 220.660201 
L 102.082201 219.585891 
L 106.018043 218.485166 
L 109.913781 217.329798 
L 113.820659 216.084807 
L 117.759139 214.782461 
L 121.729592 213.42891 
L 125.644231 212.060637 
L 129.558317 210.686026 
L 133.451855 209.285097 
L 137.322345 207.832364 
L 141.221814 206.301788 
L 145.219923 204.66323 
L 149.141679 202.994669 
L 153.05191 201.222002 
L 156.971943 199.376232 
L 160.888106 197.497766 
L 164.797891 195.567355 
L 168.753958 193.564911 
L 172.70407 191.516437 
L 176.572775 189.41355 
L 180.488807 187.250025 
L 184.383945 185.070106 
L 188.23631 182.851882 
L 192.097353 180.565585 
L 195.947702 178.208822 
L 199.772987 175.811786 
L 203.610228 173.371832 
L 207.442376 170.900226 
L 211.235258 168.418949 
L 215.034541 165.863152 
L 218.835425 163.207378 
L 222.641939 160.476732 
L 226.381755 157.694491 
L 230.10617 154.831635 
L 233.850541 151.874602 
L 237.500933 148.83635 
L 241.233118 145.634485 
L 244.88625 142.428187 
L 248.468528 139.255557 
L 252.089011 135.991186 
L 255.688614 132.636713 
L 259.228735 129.19997 
L 262.804937 125.587226 
L 266.405787 121.836245 
L 270.004959 118.00275 
L 273.465458 114.258057 
L 277.040921 110.412127 
L 280.771982 106.389774 
L 284.504229 102.08065 
L 288.171546 97.55586 
L 291.739177 92.853507 
L 295.27796 87.877836 
L 298.73415 82.736524 
L 302.083347 77.435513 
L 305.392047 71.867647 
" clip-path="url(#pe8d78f7a7b)" style="fill: none; stroke: #a9a7a0; stroke-opacity: 0.75; stroke-width: 1.5; stroke-linecap: round"/>
   </g>
   <g id="line2d_21">
    <path d="M 34.242358 230.225093 
L 38.037217 230.085855 
L 42.046542 229.905886 
L 46.14493 229.687693 
L 50.225223 229.456641 
L 54.322182 229.150229 
L 58.34633 228.788597 
L 62.387729 228.398409 
L 66.445772 227.959089 
L 70.483334 227.434519 
L 74.519516 226.869661 
L 78.588062 226.211793 
L 82.563873 225.488705 
L 86.588988 224.66871 
L 90.628712 223.784735 
L 94.594614 222.870295 
L 98.593746 221.907784 
L 102.590401 220.905434 
L 106.549407 219.87927 
L 110.48531 218.778767 
L 114.470541 217.610134 
L 118.453802 216.415229 
L 122.431932 215.154168 
L 126.478592 213.843637 
L 130.417626 212.547871 
L 134.350444 211.179898 
L 138.296225 209.753334 
L 142.282864 208.181894 
L 146.242416 206.524901 
L 150.229154 204.780095 
L 154.204615 202.936072 
L 158.137333 201.042404 
L 162.076075 199.048789 
L 166.045251 197.004618 
L 170.009241 194.921038 
L 173.994264 192.719392 
L 177.953623 190.467775 
L 181.857593 188.219557 
L 185.739653 185.94908 
L 189.645315 183.586973 
L 193.519774 181.14474 
L 197.361538 178.617186 
L 201.21281 176.033762 
L 205.072253 173.387452 
L 208.833779 170.723723 
L 212.65811 167.986549 
L 216.442361 165.135783 
L 220.20341 162.166078 
L 223.960613 159.082434 
L 227.694136 155.886672 
L 231.340482 152.650142 
L 235.000614 149.217029 
L 238.639929 145.616452 
L 242.213653 141.916369 
L 245.732342 138.161178 
L 249.26497 134.307644 
L 252.757318 130.383411 
L 256.146056 126.387269 
L 259.568182 122.157129 
L 262.668078 118.179633 
L 265.763913 113.995919 
L 269.290218 109.046949 
L 272.723714 103.904955 
L 276.087311 98.525894 
L 279.393457 92.951902 
L 282.589686 87.235578 
" clip-path="url(#pe8d78f7a7b)" style="fill: none; stroke: #a9a7a0; stroke-opacity: 0.75; stroke-width: 1.5; stroke-linecap: round"/>
   </g>
   <g id="line2d_22">
    <path d="M 34.224676 230.277382 
L 38.07374 230.212585 
L 42.137231 230.077395 
L 46.182467 229.909336 
L 50.298994 229.710315 
L 54.396452 229.430924 
L 58.439344 229.108089 
L 62.463642 228.753121 
L 66.522221 228.334381 
L 70.579709 227.875081 
L 74.599412 227.35301 
L 78.670839 226.769726 
L 82.686669 226.140609 
L 86.700013 225.451424 
L 90.747231 224.715711 
L 94.775042 223.949647 
L 98.728597 223.137878 
L 102.768348 222.254497 
L 106.752056 221.335892 
L 110.679281 220.377608 
L 114.673336 219.335451 
L 118.682 218.24167 
L 122.665746 217.053365 
L 126.697435 215.782051 
L 130.60275 214.517535 
L 134.536223 213.157436 
L 138.494666 211.671548 
L 142.477935 210.066586 
L 146.469005 208.361594 
L 150.449036 206.557281 
L 154.417419 204.653917 
L 158.372608 202.644657 
L 162.250829 200.612411 
L 166.190418 198.485199 
L 170.181333 196.194268 
L 174.134338 193.77462 
L 178.049463 191.234819 
L 181.935738 188.634893 
L 185.759116 185.999384 
L 189.589971 183.193418 
L 193.415841 180.26018 
L 197.170644 177.259157 
L 200.967003 174.084364 
L 204.674648 170.859474 
L 208.37943 167.533899 
L 212.066057 164.0456 
L 215.739005 160.419486 
L 219.392183 156.637341 
L 222.985786 152.709011 
L 226.508059 148.673358 
L 229.967035 144.563659 
L 233.388053 140.263571 
L 236.739249 135.814097 
L 240.039887 131.279698 
L 243.311614 126.663044 
L 246.568464 121.943929 
L 249.825867 117.106234 
L 253.407869 111.944079 
L 257.01875 106.739717 
L 260.627462 101.529475 
L 264.255038 96.310243 
L 267.847056 91.11484 
L 271.472446 85.889635 
L 275.081143 80.679286 
L 278.689855 75.469028 
L 282.315245 70.243808 
L 285.921757 65.027486 
" clip-path="url(#pe8d78f7a7b)" style="fill: none; stroke: #a9a7a0; stroke-opacity: 0.75; stroke-width: 1.5; stroke-linecap: round"/>
   </g>
   <g id="line2d_23">
    <path d="M 34.31223 230.456944 
L 36.405623 230.602472 
L 38.517132 230.736573 
L 40.646866 230.849958 
L 42.830411 230.95608 
L 44.960463 231.042431 
L 47.09058 231.120923 
L 49.3461 231.192628 
L 51.494298 231.249206 
L 53.714213 231.290062 
L 55.970033 231.310073 
L 58.136362 231.320078 
L 60.374306 231.317577 
L 62.612249 231.304594 
L 64.832272 231.294589 
L 67.070136 231.263381 
L 69.361583 231.22169 
L 71.652991 231.164755 
L 73.980075 231.079236 
L 76.306928 230.977758 
L 78.615703 230.858775 
L 80.977825 230.711095 
L 83.286096 230.556035 
L 85.629751 230.378714 
L 87.973021 230.184969 
L 90.316138 229.982655 
L 92.676856 229.763323 
L 94.983611 229.536858 
L 97.308314 229.310986 
L 99.614931 229.076551 
L 102.046083 228.80868 
L 104.440769 228.522023 
L 106.781597 228.232402 
L 109.175345 227.914957 
L 111.532651 227.582782 
L 113.889065 227.226612 
L 116.298922 226.857121 
L 118.637226 226.497512 
L 121.118952 226.129302 
L 123.56455 225.754929 
L 126.027081 225.360253 
L 128.489874 224.969257 
L 130.862843 224.579601 
L 133.324305 224.155847 
L 135.749933 223.733294 
L 138.139503 223.305771 
L 140.564162 222.860076 
L 142.988328 222.407139 
L 145.430126 221.946611 
L 147.88978 221.483104 
L 150.367136 221.01164 
L 152.772593 220.540818 
L 155.266534 220.042453 
L 157.777554 219.528186 
L 160.216937 219.020959 
L 162.709594 218.497706 
L 165.255225 217.953566 
L 167.711771 217.426803 
L 170.184611 216.871834 
L 172.744874 216.274062 
L 175.144691 215.706501 
L 177.66749 215.087681 
L 180.190072 214.465317 
L 182.675898 213.832739 
L 185.126089 213.207436 
L 187.592913 212.560452 
L 190.058922 211.900848 
L 192.577873 211.22311 
L 195.043066 210.550906 
L 197.52563 209.868386 
L 200.044166 209.184046 
L 202.526191 208.492915 
L 205.079453 207.787391 
L 207.578203 207.076149 
L 210.058428 206.358115 
L 212.521052 205.646716 
L 215.070283 204.882223 
L 217.530183 204.131716 
L 220.042042 203.347765 
L 222.516589 202.552724 
L 224.97232 201.752911 
L 227.480532 200.928742 
L 229.971296 200.112965 
L 232.409056 199.314265 
L 234.88068 198.485421 
L 237.388 197.64879 
L 239.860071 196.824604 
L 242.367667 195.991994 
L 244.839138 195.160962 
L 247.362536 194.302916 
L 249.867486 193.441775 
L 252.354527 192.584919 
L 254.787594 191.731628 
L 257.272927 190.851486 
L 259.684131 189.955839 
L 262.183403 189.029252 
L 264.717556 188.084499 
L 267.179657 187.148061 
L 269.659389 186.205693 
" clip-path="url(#pe8d78f7a7b)" style="fill: none; stroke: #52514e; stroke-opacity: 0.75; stroke-width: 1.5; stroke-linecap: round"/>
   </g>
   <g id="line2d_24">
    <path d="M 34.493219 230.275477 
L 36.569997 230.269521 
L 38.593068 230.260826 
L 40.777219 230.232119 
L 42.836009 230.191501 
L 45.020019 230.134804 
L 47.186025 230.065243 
L 49.262448 229.989252 
L 51.499945 229.903851 
L 53.665666 229.80428 
L 55.866914 229.682678 
L 58.08581 229.544407 
L 60.30439 229.386968 
L 62.522784 229.218579 
L 64.776709 229.034835 
L 67.01225 228.829196 
L 69.247676 228.617965 
L 71.446291 228.37129 
L 73.751142 228.079773 
L 75.984303 227.790409 
L 78.324246 227.474516 
L 80.55631 227.151639 
L 82.877174 226.803555 
L 85.179599 226.444193 
L 87.481073 226.061563 
L 89.799818 225.66101 
L 92.135761 225.243239 
L 94.453732 224.825596 
L 96.753526 224.404044 
L 99.159051 223.935829 
L 101.492617 223.468605 
L 103.825313 222.986689 
L 106.157256 222.487952 
L 108.559943 221.966067 
L 110.944013 221.43414 
L 113.273848 220.898485 
L 115.638647 220.343149 
L 118.020624 219.77382 
L 120.312424 219.205533 
L 122.745738 218.592513 
L 125.106559 217.975244 
L 127.538103 217.335073 
L 129.915542 216.695925 
L 132.345055 216.024935 
L 134.720478 215.35546 
L 137.183471 214.647835 
L 139.591612 213.93231 
L 141.962927 213.207677 
L 144.421612 212.441983 
L 146.792081 211.706287 
L 149.180405 210.967843 
L 151.603525 210.210594 
L 154.07908 209.429087 
L 156.465151 208.662278 
L 158.92002 207.850265 
L 161.285773 207.058032 
L 163.774029 206.212683 
L 166.173293 205.389218 
L 168.571634 204.55541 
L 171.04015 203.691788 
L 173.525345 202.810273 
L 175.956211 201.932469 
L 178.352059 201.069445 
L 180.799405 200.172938 
L 183.228163 199.270667 
L 185.72639 198.331218 
L 188.168565 197.378926 
L 190.57503 196.435115 
L 193.032884 195.457856 
L 195.455042 194.48837 
L 197.894648 193.510507 
L 200.332669 192.515832 
L 202.803078 191.483143 
L 205.256285 190.459888 
L 207.72494 189.409468 
L 210.12365 188.390233 
L 212.573964 187.339932 
L 215.023571 186.283923 
L 217.350736 185.280175 
L 219.817975 184.217067 
L 222.250534 183.172127 
L 224.699957 182.113445 
L 227.130946 181.053711 
L 229.596739 179.97687 
L 232.044484 178.902698 
L 234.527864 177.819337 
L 236.94059 176.759603 
L 239.403845 175.659848 
L 241.849359 174.565323 
L 244.363648 173.430697 
L 246.807608 172.323411 
L 249.250876 171.210796 
L 251.675204 170.092782 
L 254.169738 168.946356 
L 256.593604 167.824732 
L 259.070952 166.689325 
L 261.496187 165.579643 
L 263.972027 164.431134 
L 266.430897 163.295061 
" clip-path="url(#pe8d78f7a7b)" style="fill: none; stroke: #52514e; stroke-opacity: 0.75; stroke-width: 1.5; stroke-linecap: round"/>
   </g>
   <g id="line2d_25">
    <path d="M 34.057017 230.594441 
L 36.14639 230.89007 
L 38.254017 231.177625 
L 40.397788 231.458059 
L 42.488541 231.713521 
L 44.650941 231.971846 
L 46.813766 232.215307 
L 48.959395 232.43224 
L 51.140924 232.64632 
L 53.30484 232.847195 
L 55.504858 233.037128 
L 57.758703 233.22397 
L 59.995095 233.387361 
L 62.231699 233.538251 
L 64.450464 233.685212 
L 66.687648 233.799788 
L 68.925047 233.894596 
L 71.198334 233.982974 
L 73.47181 234.050273 
L 75.709516 234.10828 
L 77.965194 234.15533 
L 80.238908 234.180463 
L 82.566331 234.193806 
L 84.911667 234.198334 
L 87.239097 234.184753 
L 89.566474 234.151997 
L 91.893765 234.108757 
L 94.220927 234.036575 
L 96.61959 233.950459 
L 98.964403 233.848981 
L 101.362705 233.73083 
L 103.725058 233.600771 
L 106.087395 233.469164 
L 108.449571 233.328627 
L 110.847189 233.163566 
L 113.226836 232.994697 
L 115.588296 232.812852 
L 118.021094 232.613389 
L 120.435536 232.396553 
L 122.849762 232.170436 
L 125.299531 231.925994 
L 127.766824 231.666683 
L 130.10869 231.41119 
L 132.486091 231.145345 
L 134.952391 230.85416 
L 137.418276 230.547755 
L 139.812224 230.23637 
L 142.294542 229.886937 
L 144.668857 229.527079 
L 147.113694 229.137628 
L 149.594066 228.738903 
L 151.984875 228.346622 
L 154.482463 227.929487 
L 156.926339 227.516292 
L 159.334096 227.097178 
L 161.794973 226.659295 
L 164.255688 226.212991 
L 166.751653 225.753498 
L 169.228786 225.280971 
L 171.705333 224.795404 
L 174.145739 224.305236 
L 176.657121 223.793926 
L 179.150055 223.275164 
L 181.625002 222.757127 
L 184.046161 222.242331 
L 186.50303 221.721948 
L 188.977593 221.196099 
L 191.451925 220.665168 
L 193.890085 220.132483 
L 196.434269 219.564305 
L 198.960283 218.994844 
L 201.325728 218.4543 
L 203.797906 217.88951 
L 206.3594 217.310077 
L 208.795606 216.745796 
L 211.30268 216.160261 
L 213.826801 215.558253 
L 216.279316 214.965064 
L 218.785882 214.371003 
L 221.185299 213.795167 
L 223.760748 213.149002 
L 226.229018 212.520944 
L 228.696827 211.885558 
L 231.199531 211.231554 
L 233.719098 210.559105 
L 236.201723 209.875754 
L 238.737246 209.173674 
L 241.237026 208.47731 
L 243.718959 207.783811 
L 246.217817 207.073884 
L 248.71552 206.346393 
L 251.229887 205.600355 
L 253.692418 204.8872 
L 256.172027 204.159629 
L 258.651391 203.429342 
L 261.201222 202.673681 
L 263.662061 201.937421 
L 266.158318 201.190366 
L 268.654037 200.435771 
" clip-path="url(#pe8d78f7a7b)" style="fill: none; stroke: #52514e; stroke-opacity: 0.75; stroke-width: 1.5; stroke-linecap: round"/>
   </g>
   <g id="line2d_26">
    <path d="M 34.114979 230.460258 
L 36.226157 230.613048 
L 38.26605 230.745005 
L 40.395676 230.865891 
L 42.525501 230.970941 
L 44.673258 231.074085 
L 46.767494 231.159365 
L 48.969254 231.236548 
L 51.06369 231.2992 
L 53.283501 231.356968 
L 55.557111 231.400561 
L 57.777097 231.422835 
L 59.961326 231.426051 
L 62.199166 231.394964 
L 64.401125 231.347916 
L 66.585062 231.279072 
L 68.822615 231.195695 
L 71.095829 231.100648 
L 73.333028 230.987978 
L 75.623666 230.851849 
L 77.878413 230.710601 
L 80.186807 230.563995 
L 82.512899 230.403698 
L 84.820974 230.237687 
L 87.128456 230.046323 
L 89.471215 229.827588 
L 91.813489 229.58946 
L 94.173218 229.332418 
L 96.479101 229.073361 
L 98.856009 228.791582 
L 101.250649 228.502428 
L 103.626926 228.199486 
L 105.967061 227.888944 
L 108.3425 227.561994 
L 110.73551 227.22387 
L 113.091939 226.866868 
L 115.448129 226.504044 
L 117.821783 226.130768 
L 120.230232 225.730175 
L 122.620395 225.321166 
L 125.009043 224.877148 
L 127.450557 224.409385 
L 129.855613 223.931922 
L 132.295619 223.435827 
L 134.700014 222.946986 
L 137.103663 222.444166 
L 139.436267 221.96059 
L 141.875673 221.453715 
L 144.313733 220.920205 
L 146.715151 220.37726 
L 149.204992 219.803222 
L 151.605302 219.238617 
L 154.040931 218.661906 
L 156.458096 218.078233 
L 158.892148 217.476318 
L 161.325945 216.871564 
L 163.794677 216.250221 
L 166.262224 215.610348 
L 168.729771 214.970948 
L 171.19678 214.322572 
L 173.64534 213.668417 
L 176.075607 213.01147 
L 178.558755 212.334839 
L 181.040503 211.638986 
L 183.503496 210.933021 
L 185.984183 210.221827 
L 188.392863 209.515018 
L 190.925016 208.764234 
L 193.349512 208.024291 
L 195.807335 207.246352 
L 198.230694 206.490041 
L 200.65476 205.743857 
L 203.168249 204.985098 
L 205.663937 204.230265 
L 208.069863 203.482594 
L 210.582091 202.704649 
L 213.077102 201.939929 
L 215.536587 201.183415 
L 218.013412 200.416853 
L 220.525178 199.632783 
L 222.948598 198.877537 
L 225.40659 198.101252 
L 227.863459 197.313418 
L 230.391488 196.507977 
L 232.918256 195.688465 
L 235.356677 194.897772 
L 237.900908 194.069864 
L 240.33796 193.261673 
L 242.810261 192.441511 
L 245.334721 191.593445 
L 247.876352 190.735108 
L 250.329559 189.904409 
L 252.851788 189.033115 
L 255.250282 188.201103 
L 257.754448 187.329388 
L 260.222749 186.463673 
L 262.708282 185.586969 
L 265.192184 184.691119 
L 267.693396 183.786405 
" clip-path="url(#pe8d78f7a7b)" style="fill: none; stroke: #52514e; stroke-opacity: 0.75; stroke-width: 1.5; stroke-linecap: round"/>
   </g>
   <g id="line2d_27">
    <path d="M 34.420845 230.177223 
L 36.53278 230.073008 
L 38.590947 229.964864 
L 40.684739 229.843621 
L 42.832008 229.704638 
L 44.978999 229.550416 
L 47.143657 229.382267 
L 49.254262 229.200554 
L 51.418305 229.005034 
L 53.653538 228.788094 
L 55.816954 228.56628 
L 57.979981 228.329362 
L 60.231712 228.059487 
L 62.429713 227.792357 
L 64.680604 227.496451 
L 66.948787 227.180576 
L 69.180886 226.8596 
L 71.447676 226.507256 
L 73.749746 226.139227 
L 76.05099 225.750312 
L 78.316272 225.360818 
L 80.598698 224.951971 
L 82.916182 224.524358 
L 85.250432 224.0716 
L 87.530462 223.613895 
L 89.809984 223.145882 
L 92.159913 222.647369 
L 94.419945 222.151892 
L 96.732424 221.62785 
L 99.079667 221.08117 
L 101.408594 220.528585 
L 103.753945 219.951015 
L 106.115483 219.344596 
L 108.476443 218.729562 
L 110.83698 218.107804 
L 113.196417 217.46951 
L 115.590396 216.807313 
L 117.983044 216.126946 
L 120.321756 215.452334 
L 122.694741 214.751142 
L 125.137231 214.010337 
L 127.419792 213.308759 
L 129.895579 212.530544 
L 132.282118 211.769616 
L 134.667465 210.994222 
L 137.104294 210.18379 
L 139.504119 209.365143 
L 141.884466 208.531963 
L 144.316995 207.67233 
L 146.731075 206.8089 
L 149.177828 205.90491 
L 151.606787 205.005325 
L 153.998812 204.100745 
L 156.459319 203.150563 
L 158.848621 202.218137 
L 161.25417 201.26542 
L 163.69413 200.291849 
L 166.115888 199.316844 
L 168.485595 198.369332 
L 170.924786 197.386672 
L 173.379131 196.374381 
L 175.832431 195.352987 
L 178.231448 194.336914 
L 180.698672 193.273826 
L 183.094228 192.224199 
L 185.505693 191.153055 
L 187.881924 190.094959 
L 190.347102 189.013241 
L 192.792508 187.918291 
L 195.185648 186.847496 
L 197.646933 185.73163 
L 200.068968 184.594213 
L 202.438952 183.482761 
L 204.912377 182.312326 
L 207.332212 181.155755 
L 209.698057 180.01055 
L 212.147202 178.793958 
L 214.561914 177.597587 
L 216.95947 176.411907 
L 219.39146 175.205804 
L 221.840097 173.985165 
L 224.252885 172.772714 
L 226.751127 171.506043 
L 229.197919 170.271096 
L 231.626062 169.034032 
L 234.071268 167.78501 
L 236.497319 166.52963 
L 238.905584 165.279724 
L 241.364761 163.994879 
L 243.788242 162.72024 
L 246.263221 161.415057 
L 248.735814 160.092071 
L 251.155988 158.792852 
L 253.646075 157.46217 
L 256.10139 156.148488 
L 258.486006 154.860296 
L 260.902426 153.533971 
L 263.387697 152.168832 
L 265.820672 150.828617 
" clip-path="url(#pe8d78f7a7b)" style="fill: none; stroke: #52514e; stroke-opacity: 0.75; stroke-width: 1.5; stroke-linecap: round"/>
   </g>
   <g id="line2d_28">
    <path d="M 34.20677 230.285006 
L 38.002198 230.240338 
L 42.030077 230.132899 
L 46.075813 230.025104 
L 50.103943 230.078705 
L 53.988498 230.195195 
L 58.052391 230.229619 
L 62.151825 230.113604 
L 66.160896 229.913512 
L 70.188396 229.766057 
L 74.216527 229.806437 
L 78.226356 229.933289 
L 82.290248 229.994156 
L 86.336319 229.946868 
L 90.399634 229.798579 
L 94.409505 229.678992 
L 98.455611 229.678873 
L 102.537304 229.767135 
L 106.637007 229.828002 
L 110.77239 229.745339 
L 114.871492 229.588354 
L 118.935292 229.507358 
L 123.052873 229.569416 
L 127.187056 229.789396 
L 131.250894 229.863484 
L 135.421895 229.752712 
L 139.591274 229.489035 
L 143.672513 229.360759 
L 147.859493 229.618578 
L 152.091492 230.225408 
L 156.223183 230.557364 
L 160.375459 230.391584 
L 164.606997 229.777892 
L 168.822395 229.215298 
L 172.939214 229.113711 
L 177.068081 229.562487 
L 181.171454 230.246839 
L 185.247408 230.661231 
L 189.381552 230.50213 
L 193.47217 229.957356 
L 197.584743 229.566973 
L 201.719118 229.713337 
L 205.844461 230.290435 
L 209.984898 230.945706 
L 214.117258 231.248152 
L 218.233462 231.057844 
L 222.291692 230.625305 
L 226.426467 230.578027 
L 230.518869 231.05488 
L 234.620764 231.773291 
L 238.766756 232.2512 
L 242.883606 232.189629 
L 246.960068 231.768865 
L 251.075796 231.549033 
L 255.1898 231.864557 
L 259.24046 232.519801 
L 263.295197 233.046071 
L 267.44805 232.968537 
L 271.614228 232.552886 
L 275.765174 232.282209 
L 279.970817 232.485501 
L 284.078467 233.053317 
L 288.201349 233.699565 
L 292.350156 234.078066 
L 296.412801 233.942546 
L 300.542714 233.509405 
L 304.659642 233.488803 
L 308.805403 233.977426 
L 313.003414 234.924581 
L 317.079784 235.788836 
L 321.104118 236.089693 
L 325.217691 235.745238 
L 329.363514 235.248141 
L 333.444838 235.239684 
L 337.51413 235.852991 
L 341.578191 236.926746 
L 345.634836 237.817326 
L 349.678157 238.058796 
L 353.775175 237.780385 
L 357.907488 237.462921 
L 361.987304 237.652964 
L 366.123372 238.398942 
L 370.239376 239.508234 
L 374.302575 240.266077 
L 378.400732 240.449708 
L 382.605083 240.154621 
L 386.702254 239.87525 
L 390.781578 240.121021 
L 394.860656 240.925371 
L 398.955643 242.076878 
L 403.08411 242.974192 
L 407.16171 243.310883 
L 411.296116 243.151894 
L 415.446862 242.854537 
L 419.581145 242.998632 
L 423.721274 243.648365 
L 427.822139 244.711675 
L 431.91171 245.662246 
L 435.988141 246.055819 
" clip-path="url(#pe8d78f7a7b)" style="fill: none; stroke: #2a78d6; stroke-opacity: 0.75; stroke-width: 1.5; stroke-linecap: round"/>
   </g>
   <g id="line2d_29">
    <path d="M 34.242577 230.290724 
L 38.020019 230.226641 
L 42.100854 230.036669 
L 46.163867 229.854557 
L 50.191897 229.79381 
L 54.201323 229.946857 
L 58.24659 230.107888 
L 62.346416 230.114797 
L 66.481479 229.977225 
L 70.490481 229.770583 
L 74.571909 229.64111 
L 78.635924 229.641348 
L 82.64583 229.75486 
L 86.709584 229.849436 
L 90.791396 229.794763 
L 94.801495 229.707929 
L 98.865471 229.72794 
L 102.982383 229.885756 
L 107.062776 230.110022 
L 111.25191 230.180297 
L 115.422666 230.034868 
L 119.503328 229.830963 
L 123.656636 229.831797 
L 127.859994 230.18104 
L 131.936664 230.589184 
L 136.036151 230.635159 
L 140.151494 230.361728 
L 144.26689 230.09461 
L 148.455193 230.226925 
L 152.635896 230.755293 
L 156.81489 231.334288 
L 160.949396 231.450281 
L 165.116689 231.09629 
L 169.354258 230.672077 
L 173.5431 230.666242 
L 177.727326 231.063303 
L 181.883918 231.76334 
L 185.978628 232.13918 
L 190.094971 231.968997 
L 194.204821 231.461772 
L 198.284422 231.226111 
L 202.435214 231.494868 
L 206.64478 232.211506 
L 210.799865 232.93902 
L 214.87945 233.177061 
L 219.010625 232.831796 
L 223.042345 232.153055 
L 227.135747 231.720582 
L 231.160974 231.958829 
L 235.29501 232.751678 
L 239.425662 233.614238 
L 243.502109 233.99422 
L 247.563431 233.743213 
L 251.68102 232.980715 
L 255.75102 232.381633 
L 259.760261 232.434983 
L 263.826922 233.127437 
L 267.976314 233.978783 
L 272.052299 234.394371 
L 276.131977 234.1954 
L 280.289585 233.523639 
L 284.469795 232.986505 
L 288.514946 232.987219 
L 292.641259 233.52362 
L 296.79102 234.368342 
L 300.831233 234.772487 
L 304.929574 234.610412 
L 309.071796 234.003012 
L 313.199216 233.501197 
L 317.352147 233.507509 
L 321.497631 234.004809 
L 325.619697 234.67124 
L 329.753057 234.905829 
L 333.885216 234.606849 
L 338.063288 233.99503 
L 342.21268 233.64223 
L 346.329145 233.766082 
L 350.417824 234.357274 
L 354.573124 235.084705 
L 358.705345 235.389169 
L 362.785869 235.211603 
L 366.860208 234.716272 
L 370.976428 234.551335 
L 375.054305 234.896033 
L 379.159847 235.526124 
L 383.343642 235.936977 
L 387.514574 235.895768 
L 391.732157 235.402476 
L 395.933646 234.981265 
L 400.068605 235.036526 
L 404.230768 235.571737 
L 408.43438 236.420416 
L 412.541676 236.989377 
L 416.640694 237.010813 
L 420.823227 236.544749 
L 424.986651 236.038142 
L 429.103609 236.005152 
L 433.286912 236.443861 
L 437.405654 237.186124 
" clip-path="url(#pe8d78f7a7b)" style="fill: none; stroke: #2a78d6; stroke-opacity: 0.75; stroke-width: 1.5; stroke-linecap: round"/>
   </g>
   <g id="line2d_30">
    <path d="M 34.188785 230.24951 
L 37.965085 230.053707 
L 42.009403 229.811701 
L 46.054961 229.677227 
L 50.029404 229.637562 
L 54.003564 229.724392 
L 58.066858 229.879709 
L 62.094997 229.919731 
L 66.176632 229.831231 
L 70.2749 229.606134 
L 74.284191 229.426166 
L 78.383886 229.467737 
L 82.446047 229.711169 
L 86.490248 229.954122 
L 90.642798 229.835147 
L 94.80556 229.30165 
L 98.989605 228.890772 
L 103.16063 228.927339 
L 107.379959 229.356289 
L 111.52495 229.880615 
L 115.605974 229.920033 
L 119.769421 229.420106 
L 123.995843 228.673283 
L 128.144904 228.315267 
L 132.297581 228.411974 
L 136.461374 228.911465 
L 140.519966 229.323169 
L 144.672904 229.294466 
L 148.855491 228.827682 
L 153.019453 228.335329 
L 157.208072 228.237309 
L 161.358056 228.568223 
L 165.45112 229.038469 
L 169.655563 229.319021 
L 173.843666 229.165273 
L 177.989442 228.661855 
L 182.193439 228.354283 
L 186.328045 228.485765 
L 190.402937 228.960754 
L 194.512526 229.466633 
L 198.647455 229.493904 
L 202.778245 229.102776 
L 206.979149 228.648114 
L 211.16796 228.598449 
L 215.299627 228.948999 
L 219.40723 229.523732 
L 223.575855 229.794034 
L 227.655979 229.576812 
L 231.714731 229.165091 
L 235.849445 229.075415 
L 240.034332 229.444636 
L 244.209634 230.126636 
L 248.357149 230.548416 
L 252.456029 230.45207 
L 256.565078 229.92394 
L 260.712316 229.483108 
L 264.811811 229.498235 
L 268.975681 229.97805 
L 273.217697 230.777194 
L 277.362258 231.304685 
L 281.515219 231.302422 
L 285.698998 230.877736 
L 289.902672 230.553381 
L 294.054987 230.697839 
L 298.250353 231.314232 
L 302.44981 232.240137 
L 306.575662 232.789724 
L 310.674803 232.802467 
L 314.875769 232.354476 
L 319.024422 231.980521 
L 323.086329 232.189741 
L 327.184485 232.975172 
L 331.221929 233.898791 
L 335.311992 234.438003 
L 339.483016 234.47159 
L 343.596651 234.109251 
L 347.730288 233.875598 
L 351.827336 234.140661 
L 355.99833 234.912898 
L 360.066853 235.919944 
L 364.151531 236.601306 
L 368.214515 236.708963 
L 372.240542 236.447556 
L 376.356854 236.269272 
L 380.451718 236.645721 
L 384.580862 237.529287 
L 388.768226 238.650359 
L 392.869214 239.375669 
L 396.967678 239.524767 
L 401.190061 239.228958 
L 405.342622 239.095209 
L 409.418223 239.510998 
L 413.580939 240.443185 
L 417.698728 241.525322 
L 421.767282 242.161443 
L 425.88424 242.235639 
L 430.053695 241.978867 
L 434.242475 241.949806 
L 438.407591 242.393254 
" clip-path="url(#pe8d78f7a7b)" style="fill: none; stroke: #2a78d6; stroke-opacity: 0.75; stroke-width: 1.5; stroke-linecap: round"/>
   </g>
   <g id="line2d_31">
    <path d="M 34.331909 230.235456 
L 38.30093 229.82912 
L 42.555108 229.354231 
L 45.68387 229.027768 
L 49.852948 228.78913 
L 54.094927 228.642286 
L 58.367047 228.165723 
L 62.569894 227.78803 
L 66.756362 227.482812 
L 70.962447 227.300708 
L 75.132072 227.064662 
L 78.299047 226.854234 
L 82.46506 226.437764 
L 86.633284 226.111831 
L 90.926778 225.788527 
L 95.180275 225.286035 
L 99.383841 224.936656 
L 103.659006 224.580842 
L 107.86358 224.280021 
L 111.049015 224.096253 
L 115.290023 223.850092 
L 119.586212 223.735273 
L 123.811019 223.729914 
L 127.999676 223.597588 
L 132.223228 223.394298 
L 136.41037 223.122882 
L 139.542492 222.97627 
L 143.819657 222.742005 
L 148.116209 222.669942 
L 152.374264 222.357933 
L 156.722259 222.074978 
L 161.034811 221.823101 
L 165.294567 221.644571 
L 169.589603 221.423415 
L 172.83002 221.394352 
L 177.090437 221.295255 
L 181.351101 221.287991 
L 185.593193 221.139828 
L 189.853718 221.113032 
L 194.114459 221.042042 
L 198.3025 220.833017 
L 202.616769 220.838974 
L 205.857124 220.832185 
L 210.081892 220.768461 
L 214.289012 220.726652 
L 218.478115 220.649587 
L 222.7207 220.571929 
L 226.998211 220.785599 
L 231.307418 221.215774 
L 235.602884 221.422892 
L 239.861363 221.713595 
L 244.175124 221.863187 
L 247.379337 221.955971 
L 251.619676 222.259172 
L 255.879909 222.40722 
L 260.190853 222.757668 
L 264.450594 222.963361 
L 268.743429 223.327381 
L 272.000756 223.493768 
L 276.362782 223.958439 
L 280.674527 224.273664 
L 284.979949 224.833571 
L 289.251244 225.331513 
L 293.556234 225.904975 
L 297.821021 226.593171 
L 301.018542 227.019524 
L 305.343242 227.538669 
L 309.625262 228.245515 
L 313.946484 228.863517 
L 318.23475 229.392373 
L 322.534771 230.095172 
L 326.797743 230.827053 
L 331.041574 231.577852 
L 335.337594 232.367707 
L 338.54687 232.94579 
L 342.78947 233.730931 
L 347.058935 234.292975 
L 351.356248 235.059265 
L 355.50327 235.953357 
L 359.697404 236.969644 
L 363.923141 238.057721 
L 367.08949 238.770496 
L 371.320336 239.767058 
L 375.576506 240.93491 
L 379.780703 242.074557 
L 384.050137 243.036975 
L 388.353635 244.029434 
L 392.599866 245.070008 
L 396.833789 246.527126 
L 401.051218 247.735442 
L 405.243321 249.036846 
L 409.511401 250.295494 
L 413.754555 251.640719 
L 417.940258 253.024636 
L 422.234247 254.41532 
L 426.469647 255.852767 
L 430.63981 256.962378 
L 434.871917 258.217769 
L 439.164029 259.390321 
" clip-path="url(#pe8d78f7a7b)" style="fill: none; stroke: #eb6834; stroke-opacity: 0.75; stroke-width: 1.5; stroke-linecap: round"/>
   </g>
   <g id="line2d_32">
    <path d="M 34.349503 230.200562 
L 38.352229 229.718234 
L 42.531417 229.13993 
L 46.728643 228.57307 
L 50.857325 228.099147 
L 55.096196 227.730498 
L 58.313082 227.352776 
L 62.566514 226.849338 
L 66.749138 226.38255 
L 70.983041 225.841244 
L 75.232942 225.233102 
L 79.415933 224.77367 
L 83.599094 224.320662 
L 87.894545 224.112591 
L 91.077337 223.794686 
L 95.316695 223.441851 
L 99.554095 223.011215 
L 103.87938 222.515151 
L 108.119672 222.218866 
L 112.429986 221.831396 
L 116.793528 221.424295 
L 119.997727 221.317694 
L 124.290755 220.968679 
L 128.603161 220.71014 
L 132.826537 220.471469 
L 137.139951 220.270188 
L 141.434541 220.006636 
L 145.676487 219.844307 
L 149.988055 219.534935 
L 153.227949 219.427265 
L 157.539963 219.125609 
L 161.866179 218.657598 
L 166.156507 218.199971 
L 170.500947 217.750891 
L 174.86265 217.280528 
L 179.217292 216.590504 
L 183.503219 215.983177 
L 186.737174 215.573814 
L 191.038226 214.892722 
L 195.272041 214.335312 
L 199.537843 213.673004 
L 203.928041 212.97681 
L 208.250895 212.413023 
L 212.562148 212.076022 
L 216.784762 211.788424 
L 219.933617 211.557513 
L 224.173293 211.218956 
L 228.466329 210.862071 
L 232.830233 210.469604 
L 237.179735 210.302025 
L 241.474232 210.030498 
L 245.804948 209.778132 
L 249.009254 209.678558 
L 253.341201 209.534556 
L 257.566138 209.519073 
L 261.808539 209.434631 
L 266.140439 209.3964 
L 270.454462 209.490492 
L 274.750728 209.397709 
L 279.100938 209.303849 
L 282.359311 209.332793 
L 286.673687 209.23953 
L 291.006188 209.203916 
L 295.212477 209.022044 
L 299.471386 208.759201 
L 303.712756 208.54674 
L 308.009053 208.469205 
L 312.28738 208.438953 
L 315.527859 208.438476 
L 319.770767 208.509229 
L 324.082819 208.803497 
L 328.375916 209.147272 
L 332.652981 209.396306 
L 336.963157 209.782934 
L 341.257947 210.033625 
L 345.604895 210.380871 
L 348.86116 210.612378 
L 353.190445 210.935921 
L 357.457201 211.575919 
L 361.733712 212.402931 
L 366.141835 213.101399 
L 370.379881 213.978887 
L 374.647376 214.59749 
L 378.96386 215.338048 
L 382.153349 215.955856 
L 386.433461 216.706605 
L 390.740713 217.635181 
L 395.071014 218.465775 
L 399.373465 219.477174 
L 403.662932 220.401585 
L 407.919102 221.276235 
L 411.109669 221.872353 
L 415.346515 222.771026 
L 419.604224 223.617013 
L 423.903445 224.679581 
L 428.223806 225.690381 
L 432.574908 226.788477 
L 436.883976 227.978908 
L 441.132669 229.253276 
" clip-path="url(#pe8d78f7a7b)" style="fill: none; stroke: #eb6834; stroke-opacity: 0.75; stroke-width: 1.5; stroke-linecap: round"/>
   </g>
   <g id="line2d_33">
    <path d="M 34.348469 230.134846 
L 38.332117 229.611013 
L 42.548971 229.09072 
L 46.763116 228.485792 
L 50.98265 227.598848 
L 55.178302 226.976566 
L 58.403727 226.360059 
L 62.672999 225.397436 
L 66.840019 224.548427 
L 71.107964 223.565965 
L 75.421202 222.752076 
L 79.644327 221.934804 
L 83.868784 221.14504 
L 88.212597 220.224227 
L 91.384739 219.617076 
L 95.718143 218.850983 
L 100.03867 218.217316 
L 104.307819 217.657822 
L 108.569544 216.897224 
L 112.921123 216.13575 
L 117.236199 215.367215 
L 121.546629 214.496426 
L 124.760974 213.678884 
L 129.031216 212.72995 
L 133.246467 211.764733 
L 137.513516 210.765692 
L 141.799436 209.782382 
L 146.089032 208.858541 
L 150.377144 207.912734 
L 154.734624 206.914486 
L 157.990527 206.189642 
L 162.323559 205.41656 
L 166.671892 204.588698 
L 170.973559 203.921851 
L 175.326693 203.196215 
L 179.639284 202.368569 
L 183.973308 201.616478 
L 188.306532 200.8497 
L 191.531086 200.210983 
L 195.815613 199.567905 
L 200.109649 198.730087 
L 204.487892 198.205 
L 208.771096 197.526879 
L 212.971554 197.051032 
L 217.206 196.514666 
L 220.351978 196.166212 
L 224.661338 195.749612 
L 229.005178 195.272325 
L 233.299183 194.96519 
L 237.631407 194.856917 
L 241.943736 194.577049 
L 246.147872 194.255399 
L 250.491374 193.771228 
L 253.746207 193.467952 
L 258.013471 192.84293 
L 262.348157 192.105791 
L 266.678196 191.274292 
L 270.976386 190.533202 
L 275.285423 189.641624 
L 279.609846 188.695607 
L 283.906636 187.589344 
L 287.079354 186.996685 
L 291.366867 186.046216 
L 295.615898 185.044313 
L 299.858929 183.944757 
L 304.176367 182.8832 
L 308.462695 181.906393 
L 312.72225 180.788947 
L 317.012732 179.590145 
L 320.178957 178.870695 
L 324.34952 177.768064 
L 328.614369 176.72732 
L 332.910666 175.93921 
L 337.216011 174.975341 
L 341.504431 174.029232 
L 345.786696 173.33621 
L 350.101395 172.558297 
L 354.400062 171.820231 
L 357.589644 171.203119 
L 361.844891 170.771534 
L 366.152759 170.290446 
L 370.501123 170.029629 
L 374.758678 169.696799 
L 379.085102 169.25059 
L 383.411802 168.817833 
L 387.689821 168.667166 
L 391.983657 168.35194 
L 395.221243 168.078887 
L 399.497969 167.815096 
L 403.91597 167.440366 
L 408.265472 167.274453 
L 412.544199 167.32424 
L 415.746459 167.08989 
L 419.98752 166.851348 
L 424.211996 166.696622 
L 428.487461 166.362476 
L 432.890168 166.150122 
L 437.240501 166.149529 
L 441.570648 165.861322 
" clip-path="url(#pe8d78f7a7b)" style="fill: none; stroke: #eb6834; stroke-opacity: 0.75; stroke-width: 1.5; stroke-linecap: round"/>
   </g>
   <g id="patch_3">
    <path d="M 31.933053 275.446948 
L 31.933053 34.571189 
" style="fill: none; stroke: #c3c2b7; stroke-width: 0.8; stroke-linejoin: miter; stroke-linecap: square"/>
   </g>
   <g id="patch_4">
    <path d="M 31.933053 275.446948 
L 529.79976 275.446948 
" style="fill: none; stroke: #c3c2b7; stroke-width: 0.8; stroke-linejoin: miter; stroke-linecap: square"/>
   </g>
   <g id="text_15">
    <text style="font-weight: 600; font-size: 8.5px; font-family: 'DejaVu Sans', 'Helvetica', 'Arial', sans-serif; text-anchor: start; fill: #a9a7a0" x="312.392047" y="78.191232" transform="rotate(-0 312.392047 78.191232)">PWM  (5 runs)</text>
   </g>
   <g id="text_16">
    <text style="font-weight: 600; font-size: 8.5px; font-family: 'DejaVu Sans', 'Helvetica', 'Arial', sans-serif; text-anchor: start; fill: #52514e" x="276.659389" y="186.131874" transform="rotate(-0 276.659389 186.131874)">PID  (5 runs)</text>
   </g>
   <g id="text_17">
    <text style="font-weight: 600; font-size: 8.5px; font-family: 'DejaVu Sans', 'Helvetica', 'Arial', sans-serif; text-anchor: start; fill: #2a78d6" x="446.407591" y="253.738723" transform="rotate(-0 446.407591 253.738723)">IMU  (3 runs)</text>
   </g>
   <g id="text_18">
    <text style="font-weight: 600; font-size: 8.5px; font-family: 'DejaVu Sans', 'Helvetica', 'Arial', sans-serif; text-anchor: start; fill: #eb6834" x="449.570648" y="220.598745" transform="rotate(-0 449.570648 220.598745)">IMU-IL  (3 runs)</text>
   </g>
   <g id="text_19">
    <text style="font-weight: 600; font-size: 9px; font-family: 'DejaVu Sans', 'Helvetica', 'Arial', sans-serif; text-anchor: start; fill: #52514e" x="31.933053" y="26.571189" transform="rotate(-0 31.933053 26.571189)">All runs, unweighted robot. The two uncorrected controllers were not run as far.</text>
   </g>
  </g>
  <g id="text_20">
   <text style="font-weight: 600; font-size: 11px; font-family: 'DejaVu Sans', 'Helvetica', 'Arial', sans-serif; text-anchor: start; fill: #0b0b0b" x="4.2624" y="11.358521" transform="rotate(-0 4.2624 11.358521)">Lateral deviation over a straight-line run</text>
  </g>
 </g>
 <defs>
  <clipPath id="pe8d78f7a7b">
   <rect x="31.933053" y="34.571189" width="497.866707" height="240.875759"/>
  </clipPath>
 </defs>
</svg>
